<svg width="40" height="40" viewBox="0 0 40 40" fill="none" xmlns="http://www.w3.org/2000/svg">
<rect width="3.16881" height="10.8125" rx="1.5844" transform="matrix(0.617107 -0.786879 0.737187 0.675689 29.0977 29.4507)" fill="#9E7F54"/>
<path d="M34.299 23.0407C34.299 28.0038 30.2756 32.0272 25.3125 32.0272C20.3494 32.0272 16.326 28.0038 16.326 23.0407C16.326 18.0776 20.3494 14.0542 25.3125 14.0542C30.2756 14.0542 34.299 18.0776 34.299 23.0407ZM19.4785 23.0407C19.4785 26.2628 22.0905 28.8748 25.3125 28.8748C28.5346 28.8748 31.1466 26.2628 31.1466 23.0407C31.1466 19.8186 28.5346 17.2066 25.3125 17.2066C22.0905 17.2066 19.4785 19.8186 19.4785 23.0407Z" fill="#004D71"/>
<rect x="3" y="3.24316" width="28" height="3.24324" rx="1.62162" fill="#F5D93F"/>
<rect x="3" y="9.72949" width="18" height="3.24324" rx="1.62162" fill="#F5D93F"/>
<rect x="3" y="16.3945" width="11" height="3.24324" rx="1.62162" fill="#F5D93F"/>
<rect x="3" y="22.7026" width="8" height="3.24324" rx="1.62162" fill="#F5D93F"/>
</svg>
