<svg width="24" height="25" viewBox="0 0 24 25" fill="none" xmlns="http://www.w3.org/2000/svg">
<g clip-path="url(#clip0_334_31586)">
<path fill-rule="evenodd" clip-rule="evenodd" d="M12 14.6221L17.303 19.9251C17.5844 20.2065 17.966 20.3646 18.364 20.3646C18.7619 20.3646 19.1436 20.2065 19.425 19.9251C19.7064 19.6437 19.8645 19.2621 19.8645 18.8641C19.8645 18.4662 19.7064 18.0845 19.425 17.8031L14.12 12.5001L19.424 7.19711C19.5632 7.05778 19.6737 6.89238 19.749 6.71036C19.8244 6.52834 19.8631 6.33326 19.8631 6.13626C19.8631 5.93926 19.8242 5.7442 19.7488 5.56221C19.6733 5.38022 19.5628 5.21488 19.4235 5.07561C19.2841 4.93634 19.1187 4.82588 18.9367 4.75054C18.7547 4.67519 18.5596 4.63644 18.3626 4.63648C18.1656 4.63653 17.9706 4.67538 17.7886 4.75081C17.6066 4.82624 17.4412 4.93678 17.302 5.07611L12 10.3791L6.69697 5.07611C6.55867 4.93278 6.3932 4.81843 6.21024 4.73973C6.02727 4.66103 5.83046 4.61956 5.63129 4.61774C5.43212 4.61591 5.23459 4.65377 5.05021 4.72911C4.86583 4.80444 4.6983 4.91574 4.55739 5.05652C4.41649 5.19729 4.30503 5.36471 4.22952 5.54902C4.15401 5.73333 4.11597 5.93083 4.1176 6.13C4.11924 6.32917 4.16053 6.52602 4.23905 6.70906C4.31758 6.8921 4.43177 7.05767 4.57497 7.19611L9.87997 12.5001L4.57597 17.8041C4.43277 17.9425 4.31858 18.1081 4.24005 18.2912C4.16153 18.4742 4.12024 18.6711 4.1186 18.8702C4.11697 19.0694 4.15501 19.2669 4.23052 19.4512C4.30603 19.6355 4.41749 19.8029 4.55839 19.9437C4.6993 20.0845 4.86683 20.1958 5.05121 20.2711C5.23559 20.3464 5.43312 20.3843 5.63229 20.3825C5.83146 20.3807 6.02827 20.3392 6.21124 20.2605C6.3942 20.1818 6.55967 20.0674 6.69797 19.9241L12 14.6221Z" fill="#292929"/>
</g>
<defs>
<clipPath id="clip0_334_31586">
<rect width="24" height="24" fill="white" transform="translate(0 0.5)"/>
</clipPath>
</defs>
</svg>
