<svg width="32" height="33" viewBox="0 0 32 33" fill="none" xmlns="http://www.w3.org/2000/svg">
<g clip-path="url(#clip0_299_18288)">
<path d="M19.7238 4.5C20.1857 4.50031 20.6333 4.66049 20.9905 4.95333L21.1372 5.08667L23.2198 7.16667H26.6665C27.3393 7.16645 27.9873 7.42054 28.4806 7.878C28.9739 8.33545 29.276 8.96246 29.3265 9.63333L29.3332 9.83333V25.8333C29.3334 26.5061 29.0793 27.1541 28.6218 27.6474C28.1644 28.1407 27.5374 28.4429 26.8665 28.4933L26.6665 28.5H5.33317C4.6604 28.5002 4.01242 28.2461 3.51911 27.7887C3.0258 27.3312 2.72363 26.7042 2.67317 26.0333L2.6665 25.8333V9.83333C2.66629 9.16056 2.92038 8.51258 3.37783 8.01927C3.83529 7.52596 4.4623 7.22379 5.13317 7.17333L5.33317 7.16667H8.78117L10.8612 5.08667C11.188 4.75922 11.6182 4.5552 12.0785 4.50933L12.2758 4.5H19.7238ZM15.9998 10.5C14.2317 10.5 12.536 11.2024 11.2858 12.4526C10.0355 13.7029 9.33317 15.3986 9.33317 17.1667C9.33317 18.9348 10.0355 20.6305 11.2858 21.8807C12.536 23.131 14.2317 23.8333 15.9998 23.8333C17.7679 23.8333 19.4636 23.131 20.7139 21.8807C21.9641 20.6305 22.6665 18.9348 22.6665 17.1667C22.6665 15.3986 21.9641 13.7029 20.7139 12.4526C19.4636 11.2024 17.7679 10.5 15.9998 10.5ZM15.9998 13.1667C16.5251 13.1667 17.0453 13.2701 17.5306 13.4711C18.0159 13.6722 18.4568 13.9668 18.8283 14.3382C19.1997 14.7097 19.4943 15.1506 19.6954 15.6359C19.8964 16.1212 19.9998 16.6414 19.9998 17.1667C19.9998 17.692 19.8964 18.2121 19.6954 18.6974C19.4943 19.1827 19.1997 19.6237 18.8283 19.9951C18.4568 20.3665 18.0159 20.6612 17.5306 20.8622C17.0453 21.0632 16.5251 21.1667 15.9998 21.1667C14.939 21.1667 13.9216 20.7452 13.1714 19.9951C12.4213 19.2449 11.9998 18.2275 11.9998 17.1667C11.9998 16.1058 12.4213 15.0884 13.1714 14.3382C13.9216 13.5881 14.939 13.1667 15.9998 13.1667Z" fill="#004D71"/>
</g>
<defs>
<clipPath id="clip0_299_18288">
<rect width="32" height="32" fill="white" transform="translate(0 0.5)"/>
</clipPath>
</defs>
</svg>
