<svg width="24" height="25" viewBox="0 0 24 25" fill="none" xmlns="http://www.w3.org/2000/svg">
<g clip-path="url(#clip0_552_25239)">
<path d="M12 2.5C17.523 2.5 22 6.977 22 12.5C22 18.023 17.523 22.5 12 22.5C6.477 22.5 2 18.023 2 12.5C2 6.977 6.477 2.5 12 2.5ZM12 4.5C9.87827 4.5 7.84344 5.34285 6.34315 6.84315C4.84285 8.34344 4 10.3783 4 12.5C4 14.6217 4.84285 16.6566 6.34315 18.1569C7.84344 19.6571 9.87827 20.5 12 20.5C14.1217 20.5 16.1566 19.6571 17.6569 18.1569C19.1571 16.6566 20 14.6217 20 12.5C20 10.3783 19.1571 8.34344 17.6569 6.84315C16.1566 5.34285 14.1217 4.5 12 4.5ZM11.99 10.5C12.548 10.5 13 10.952 13 11.51V16.634C13.1906 16.7441 13.3396 16.914 13.4238 17.1173C13.5081 17.3207 13.5229 17.5462 13.4659 17.7588C13.4089 17.9714 13.2834 18.1593 13.1087 18.2933C12.9341 18.4273 12.7201 18.5 12.5 18.5H12.01C11.8774 18.5 11.746 18.4739 11.6235 18.4231C11.501 18.3724 11.3896 18.298 11.2958 18.2042C11.202 18.1104 11.1276 17.999 11.0769 17.8765C11.0261 17.754 11 17.6226 11 17.49V12.5C10.7348 12.5 10.4804 12.3946 10.2929 12.2071C10.1054 12.0196 10 11.7652 10 11.5C10 11.2348 10.1054 10.9804 10.2929 10.7929C10.4804 10.6054 10.7348 10.5 11 10.5H11.99ZM12 7.5C12.2652 7.5 12.5196 7.60536 12.7071 7.79289C12.8946 7.98043 13 8.23478 13 8.5C13 8.76522 12.8946 9.01957 12.7071 9.20711C12.5196 9.39464 12.2652 9.5 12 9.5C11.7348 9.5 11.4804 9.39464 11.2929 9.20711C11.1054 9.01957 11 8.76522 11 8.5C11 8.23478 11.1054 7.98043 11.2929 7.79289C11.4804 7.60536 11.7348 7.5 12 7.5Z" fill="#429DFF"/>
</g>
<defs>
<clipPath id="clip0_552_25239">
<rect width="24" height="24" fill="white" transform="translate(0 0.5)"/>
</clipPath>
</defs>
</svg>
