<svg width="23" height="22" viewBox="0 0 23 22" fill="none" xmlns="http://www.w3.org/2000/svg">
<g clip-path="url(#clip0_777_18139)">
<path fill-rule="evenodd" clip-rule="evenodd" d="M11.4998 1.83301V7.79134C11.4999 8.13315 11.6272 8.4627 11.857 8.71572C12.0868 8.96875 12.4026 9.12711 12.7428 9.15992L12.8748 9.16634H18.8332V18.333C18.8333 18.7955 18.6586 19.241 18.3441 19.5802C18.0296 19.9193 17.5986 20.1271 17.1373 20.1618L16.9998 20.1663H5.99984C5.53731 20.1665 5.09182 19.9918 4.75267 19.6773C4.41352 19.3628 4.20578 18.9317 4.17109 18.4705L4.1665 18.333V3.66634C4.16636 3.20381 4.34104 2.75832 4.65554 2.41917C4.97004 2.08002 5.40111 1.87228 5.86234 1.83759L5.99984 1.83301H11.4998ZM11.4998 10.5413C11.2753 10.5414 11.0586 10.6238 10.8908 10.773C10.723 10.9222 10.6159 11.1278 10.5896 11.3508L10.5832 11.458V12.833H9.20817C8.97453 12.8333 8.74981 12.9227 8.57992 13.0831C8.41002 13.2435 8.30779 13.4627 8.2941 13.696C8.2804 13.9292 8.35629 14.1589 8.50625 14.338C8.6562 14.5172 8.86892 14.6323 9.10092 14.6599L9.20817 14.6663H10.5832V16.0413C10.5834 16.275 10.6729 16.4997 10.8333 16.6696C10.9937 16.8395 11.2129 16.9417 11.4461 16.9554C11.6794 16.9691 11.909 16.8932 12.0882 16.7433C12.2673 16.5933 12.3825 16.3806 12.4101 16.1486L12.4165 16.0413V14.6663H13.7915C14.0251 14.6661 14.2499 14.5766 14.4198 14.4162C14.5897 14.2558 14.6919 14.0366 14.7056 13.8034C14.7193 13.5702 14.6434 13.3405 14.4934 13.1613C14.3435 12.9822 14.1308 12.867 13.8988 12.8394L13.7915 12.833H12.4165V11.458C12.4165 11.2149 12.3199 10.9817 12.148 10.8098C11.9761 10.6379 11.743 10.5413 11.4998 10.5413ZM13.3332 1.87242C13.6296 1.93535 13.9058 2.07078 14.1371 2.26659L14.2498 2.37017L18.296 6.41634C18.5108 6.63094 18.6689 6.89553 18.7562 7.18634L18.7928 7.33301H13.3332V1.87242Z" fill="#004D71"/>
</g>
<defs>
<clipPath id="clip0_777_18139">
<rect width="22" height="22" fill="white" transform="translate(0.5)"/>
</clipPath>
</defs>
</svg>
