<svg width="28" height="28" viewBox="0 0 28 28" fill="none" xmlns="http://www.w3.org/2000/svg">
<g clip-path="url(#clip0_664_4634)">
<path d="M12.5487 7.19841L20.797 15.4479L12.4285 23.8176C12.0412 24.2049 11.5299 24.4436 10.9842 24.4919L10.7789 24.5001H4.67369C4.3834 24.5001 4.10332 24.3929 3.88716 24.1992C3.671 24.0054 3.53398 23.7386 3.50236 23.4501L3.49536 23.3217V17.2166C3.4955 16.6688 3.68837 16.1385 4.04019 15.7186L4.18019 15.5669L12.5487 7.19841ZM16.212 3.53507C16.6249 3.12213 17.1776 2.87902 17.7611 2.85375C18.3445 2.82848 18.9161 3.02288 19.3632 3.39857L19.5114 3.53507L24.4615 8.48524C24.8741 8.89807 25.117 9.45056 25.1423 10.0337C25.1676 10.6168 24.9734 11.1883 24.598 11.6352L24.4615 11.7846L22.4479 13.7982L14.1995 5.54874L16.212 3.53507Z" fill="#9E7F54"/>
</g>
<defs>
<clipPath id="clip0_664_4634">
<rect width="28" height="28" fill="white"/>
</clipPath>
</defs>
</svg>
