<svg width="32" height="32" viewBox="0 0 32 32" fill="none" xmlns="http://www.w3.org/2000/svg">
<g clip-path="url(#clip0_664_4677)">
<path d="M24 4C25.0203 3.99994 26.002 4.38977 26.7443 5.08971C27.4867 5.78966 27.9335 6.74681 27.9933 7.76533L28 8V24C28.0001 25.0203 27.6102 26.002 26.9103 26.7443C26.2103 27.4867 25.2532 27.9335 24.2347 27.9933L24 28H8C6.97972 28.0001 5.99798 27.6102 5.25565 26.9103C4.51332 26.2103 4.06652 25.2532 4.00667 24.2347L4 24V8C3.99994 6.97972 4.38977 5.99798 5.08971 5.25565C5.78966 4.51332 6.74681 4.06652 7.76533 4.00667L8 4H24ZM24 6.66667H8C7.67342 6.66671 7.35822 6.78661 7.11417 7.00362C6.87012 7.22063 6.71421 7.51967 6.676 7.844L6.66667 8V24C6.66671 24.3266 6.78661 24.6418 7.00362 24.8858C7.22063 25.1299 7.51967 25.2858 7.844 25.324L8 25.3333H24C24.3266 25.3333 24.6418 25.2134 24.8858 24.9964C25.1299 24.7794 25.2858 24.4803 25.324 24.156L25.3333 24V8C25.3333 7.67342 25.2134 7.35822 24.9964 7.11417C24.7794 6.87012 24.4803 6.71421 24.156 6.676L24 6.66667ZM15.6093 11.2853L19.3813 15.0573C19.6313 15.3074 19.7717 15.6464 19.7717 16C19.7717 16.3536 19.6313 16.6926 19.3813 16.9427L15.6093 20.7147C15.4855 20.8385 15.3384 20.9366 15.1766 21.0036C15.0148 21.0706 14.8413 21.105 14.6662 21.1049C14.4911 21.1049 14.3177 21.0703 14.1559 21.0032C13.9941 20.9362 13.8471 20.8379 13.7233 20.714C13.5995 20.5901 13.5014 20.4431 13.4344 20.2812C13.3674 20.1194 13.333 19.946 13.3331 19.7709C13.3331 19.5957 13.3677 19.4223 13.4348 19.2606C13.5018 19.0988 13.6001 18.9518 13.724 18.828L16.552 16L13.724 13.172C13.4738 12.922 13.3332 12.5828 13.3331 12.2291C13.3329 11.8754 13.4733 11.5362 13.7233 11.286C13.9733 11.0358 14.3125 10.8952 14.6662 10.8951C15.0199 10.8949 15.3591 11.0353 15.6093 11.2853Z" fill="#A9ADAE"/>
</g>
<defs>
<clipPath id="clip0_664_4677">
<rect width="32" height="32" fill="white"/>
</clipPath>
</defs>
</svg>
