<svg width="23" height="22" viewBox="0 0 23 22" fill="none" xmlns="http://www.w3.org/2000/svg">
<g clip-path="url(#clip0_664_918)">
<path d="M10.1248 18.3337C10.1248 18.6983 10.2697 19.0481 10.5276 19.3059C10.7854 19.5638 11.1352 19.7087 11.4998 19.7087C11.8645 19.7087 12.2142 19.5638 12.4721 19.3059C12.73 19.0481 12.8748 18.6983 12.8748 18.3337V12.3753H18.8332C19.1978 12.3753 19.5476 12.2305 19.8054 11.9726C20.0633 11.7147 20.2082 11.365 20.2082 11.0003C20.2082 10.6357 20.0633 10.2859 19.8054 10.0281C19.5476 9.77019 19.1978 9.62533 18.8332 9.62533H12.8748V3.66699C12.8748 3.30232 12.73 2.95258 12.4721 2.69472C12.2142 2.43686 11.8645 2.29199 11.4998 2.29199C11.1352 2.29199 10.7854 2.43686 10.5276 2.69472C10.2697 2.95258 10.1248 3.30232 10.1248 3.66699V9.62533H4.1665C3.80183 9.62533 3.45209 9.77019 3.19423 10.0281C2.93637 10.2859 2.7915 10.6357 2.7915 11.0003C2.7915 11.365 2.93637 11.7147 3.19423 11.9726C3.45209 12.2305 3.80183 12.3753 4.1665 12.3753H10.1248V18.3337Z" fill="#004D71"/>
</g>
<defs>
<clipPath id="clip0_664_918">
<rect width="22" height="22" fill="white" transform="translate(0.5)"/>
</clipPath>
</defs>
</svg>
