<svg width="24" height="25" viewBox="0 0 24 25" fill="none" xmlns="http://www.w3.org/2000/svg">
<path fill-rule="evenodd" clip-rule="evenodd" d="M10.0001 2.5C10.7006 2.4997 11.3889 2.68336 11.9961 3.03259C12.6033 3.38182 13.1081 3.88439 13.4601 4.49L13.5581 4.672L14.1961 4.304C14.9571 3.8644 15.8418 3.68767 16.7133 3.80114C17.5848 3.9146 18.3947 4.31193 19.0178 4.93173C19.6409 5.55154 20.0425 6.3593 20.1606 7.2302C20.2787 8.1011 20.1067 8.98665 19.6711 9.75L19.5581 9.936L20.1961 10.304C20.9571 10.7434 21.5522 11.4211 21.8896 12.2325C22.2269 13.0439 22.2876 13.9438 22.0624 14.7932C21.8372 15.6426 21.3386 16.3942 20.6436 16.9318C19.9486 17.4695 19.0958 17.7634 18.2171 17.768L18.0001 17.764V18.5C18.0004 19.3798 17.7106 20.2351 17.1756 20.9335C16.6407 21.6319 15.8904 22.1345 15.0409 22.3634C14.1914 22.5923 13.2902 22.5348 12.4767 22.1997C11.6633 21.8647 10.9829 21.2708 10.5411 20.51L10.4411 20.328L9.80412 20.696C9.04309 21.1356 8.15847 21.3123 7.28696 21.1989C6.41544 21.0854 5.60556 20.6881 4.98245 20.0683C4.35935 19.4485 3.95772 18.6407 3.83963 17.7698C3.72154 16.8989 3.89357 16.0134 4.32912 15.25L4.44212 15.064L3.80412 14.696C3.04313 14.2566 2.448 13.5789 2.11068 12.7675C1.77335 11.9561 1.71259 11.0562 1.93779 10.2068C2.163 9.35743 2.66163 8.60585 3.35665 8.06817C4.05167 7.53049 4.90441 7.23663 5.78312 7.232L6.00012 7.236V6.5C6.00012 5.43913 6.42155 4.42172 7.17169 3.67157C7.92184 2.92143 8.93926 2.5 10.0001 2.5ZM14.7021 13.287L14.6341 17.347C14.6317 17.4976 14.5952 17.6457 14.5275 17.7802C14.4598 17.9148 14.3626 18.0323 14.2431 18.124L14.1341 18.196L12.1781 19.326C12.3625 19.7296 12.6757 20.0605 13.0686 20.2668C13.4615 20.473 13.9118 20.5429 14.3487 20.4654C14.7857 20.3879 15.1845 20.1674 15.4825 19.8387C15.7805 19.5099 15.9608 19.0914 15.9951 18.649L16.0001 18.5V14.066L14.7021 13.287ZM12.6691 15.234L9.11912 17.204L9.00112 17.26C8.75981 17.3554 8.49087 17.3532 8.25112 17.254L8.13412 17.196L6.17812 16.066L6.08812 16.202C5.8662 16.5706 5.76908 17.001 5.8112 17.4293C5.85332 17.8575 6.03242 18.2607 6.32191 18.5791C6.61139 18.8974 6.99584 19.1139 7.41814 19.1964C7.84045 19.2789 8.27811 19.223 8.66612 19.037L8.80412 18.964L12.6441 16.747L12.6691 15.234ZM15.3571 9.819L14.0331 10.554L17.5151 12.643L17.6221 12.717C17.8256 12.8784 17.9582 13.1125 17.9921 13.37L18.0001 13.5V15.76L18.1621 15.768C18.5921 15.7757 19.0131 15.6446 19.3627 15.3941C19.7123 15.1436 19.9718 14.7872 20.1028 14.3775C20.2338 13.9679 20.2293 13.527 20.0899 13.1202C19.9506 12.7133 19.6838 12.3622 19.3291 12.119L19.1961 12.036L15.3571 9.819ZM6.00012 9.241C5.55867 9.19808 5.11547 9.30305 4.74016 9.53941C4.36485 9.77577 4.07871 10.1301 3.9267 10.5468C3.77468 10.9635 3.76541 11.4188 3.90034 11.8413C4.03527 12.2639 4.30675 12.6296 4.67212 12.881L4.80412 12.964L8.64412 15.181L9.96712 14.446L6.48612 12.358C6.35689 12.2804 6.24687 12.1747 6.16427 12.0486C6.08167 11.9226 6.02863 11.7794 6.00912 11.63L6.00012 11.5V9.241ZM12.0141 11.675L11.2921 12.075L11.2781 12.901L11.9861 13.326L12.7081 12.925L12.7221 12.099L12.0141 11.675ZM10.0001 4.5C9.49554 4.49984 9.00955 4.69041 8.63957 5.0335C8.26959 5.37659 8.04296 5.84684 8.00512 6.35L8.00012 6.5V10.934L9.29812 11.713L9.36612 7.653L9.37612 7.523C9.41426 7.26603 9.5509 7.03399 9.75712 6.876L9.86612 6.804L11.8231 5.674L11.7551 5.539C11.5827 5.2243 11.3288 4.96179 11.02 4.77899C10.7112 4.59618 10.359 4.49982 10.0001 4.5ZM17.9281 6.768C17.6764 6.33196 17.2696 6.00687 16.7887 5.85765C16.3079 5.70843 15.7884 5.74605 15.3341 5.963L15.1961 6.036L11.3561 8.253L11.3311 9.766L14.8811 7.796C15.0127 7.72287 15.1591 7.68039 15.3094 7.67173C15.4597 7.66307 15.61 7.68846 15.7491 7.746L15.8661 7.804L17.8231 8.934C18.2651 8.314 18.3331 7.469 17.9281 6.768Z" fill="#F5D93F"/>
</svg>
