<svg width="24" height="25" viewBox="0 0 24 25" fill="none" xmlns="http://www.w3.org/2000/svg">
<g clip-path="url(#clip0_664_20015)">
<path fill-rule="evenodd" clip-rule="evenodd" d="M5.708 13.8497C6.333 11.9297 7.458 9.47072 9.465 7.46372C13.399 3.52972 19.117 2.94872 19.262 2.93372C19.4459 2.91529 19.6313 2.94791 19.7978 3.02801C19.9644 3.10811 20.1056 3.23257 20.206 3.38772C20.414 3.70072 21.586 5.67072 20.015 8.05072C19.9328 8.17292 19.8405 8.28799 19.739 8.39472C19.7523 8.51885 19.7421 8.64436 19.709 8.76472C19.519 9.45372 19.275 10.1767 18.959 10.8997C18.408 12.1627 17.631 13.4397 16.536 14.5357C14.486 16.5857 11.794 17.5267 9.692 17.9657C8.74184 18.1638 7.77812 18.2902 6.809 18.3437C6.778 18.5897 6.5 21.0697 6.5 21.4997C6.5 21.7649 6.39464 22.0193 6.20711 22.2068C6.01957 22.3944 5.76522 22.4997 5.5 22.4997C5.23478 22.4997 4.98043 22.3944 4.79289 22.2068C4.60536 22.0193 4.5 21.7649 4.5 21.4997C4.5 20.9287 4.616 19.8297 4.721 18.9397C4.926 17.2077 5.167 15.5127 5.708 13.8497ZM18.345 6.94972C18.872 6.14972 18.865 5.46972 18.76 5.02972C17.233 5.30472 13.541 6.21572 10.879 8.87872C9.175 10.5817 8.179 12.7187 7.61 14.4687C7.41217 15.0761 7.24726 15.6936 7.116 16.3187C7.84412 16.2609 8.56788 16.1574 9.283 16.0087C11.203 15.6067 13.462 14.7807 15.121 13.1207C15.971 12.2707 16.605 11.2637 17.075 10.2157C16.099 10.7357 15.057 11.2017 14.316 11.4487C14.0643 11.5325 13.7896 11.5129 13.5524 11.3942C13.3152 11.2755 13.1348 11.0674 13.051 10.8157C12.9672 10.564 12.9868 10.2894 13.1055 10.0521C13.2242 9.81489 13.4323 9.63453 13.684 9.55072C14.358 9.32572 15.442 8.83772 16.438 8.28572C16.932 8.01172 17.384 7.73272 17.739 7.47772C18.123 7.20172 18.299 7.01872 18.345 6.94972Z" fill="#F5D93F"/>
</g>
<defs>
<clipPath id="clip0_664_20015">
<rect width="24" height="24" fill="white" transform="translate(0 0.5)"/>
</clipPath>
</defs>
</svg>
