<svg width="28" height="28" viewBox="0 0 28 28" fill="none" xmlns="http://www.w3.org/2000/svg">
<path fill-rule="evenodd" clip-rule="evenodd" d="M21 2.3335C21.6188 2.3335 22.2123 2.57933 22.6499 3.01691C23.0875 3.4545 23.3333 4.04799 23.3333 4.66683V14.937C21.8915 14.1041 20.2 13.8124 18.5625 14.1143C16.925 14.4163 15.4488 15.292 14.3988 16.5844C13.3489 17.8767 12.794 19.501 12.8338 21.1656C12.8736 22.8302 13.5055 24.4261 14.616 25.6668H6.99996C6.38112 25.6668 5.78763 25.421 5.35004 24.9834C4.91246 24.5458 4.66663 23.9523 4.66663 23.3335V4.66683C4.66663 4.04799 4.91246 3.4545 5.35004 3.01691C5.78763 2.57933 6.38112 2.3335 6.99996 2.3335H21ZM19.8333 16.3335C21.071 16.3335 22.258 16.8252 23.1331 17.7003C24.0083 18.5755 24.5 19.7625 24.5 21.0002C24.5 22.2378 24.0083 23.4248 23.1331 24.3C22.258 25.1752 21.071 25.6668 19.8333 25.6668C18.5956 25.6668 17.4086 25.1752 16.5335 24.3C15.6583 23.4248 15.1666 22.2378 15.1666 21.0002C15.1666 19.7625 15.6583 18.5755 16.5335 17.7003C17.4086 16.8252 18.5956 16.3335 19.8333 16.3335ZM19.8333 18.0835C19.5475 18.0835 19.2717 18.1884 19.0582 18.3783C18.8447 18.5682 18.7082 18.8299 18.6748 19.1137L18.6666 19.2502V21.0002C18.6667 21.2859 18.7716 21.5617 18.9615 21.7753C19.1513 21.9888 19.413 22.1252 19.6968 22.1587L19.8333 22.1668H21C21.2973 22.1665 21.5833 22.0526 21.7996 21.8485C22.0158 21.6444 22.1459 21.3654 22.1633 21.0685C22.1808 20.7717 22.0842 20.4794 21.8933 20.2514C21.7025 20.0233 21.4317 19.8768 21.1365 19.8417L21 19.8335V19.2502C21 18.9407 20.877 18.644 20.6583 18.4252C20.4395 18.2064 20.1427 18.0835 19.8333 18.0835ZM10.5 12.8335H9.33329C9.02387 12.8335 8.72713 12.9564 8.50834 13.1752C8.28954 13.394 8.16663 13.6907 8.16663 14.0002C8.16663 14.3096 8.28954 14.6063 8.50834 14.8251C8.72713 15.0439 9.02387 15.1668 9.33329 15.1668H10.5C10.8094 15.1668 11.1061 15.0439 11.3249 14.8251C11.5437 14.6063 11.6666 14.3096 11.6666 14.0002C11.6666 13.6907 11.5437 13.394 11.3249 13.1752C11.1061 12.9564 10.8094 12.8335 10.5 12.8335ZM16.3333 8.16683H9.33329C9.03593 8.16716 8.74992 8.28102 8.5337 8.48515C8.31747 8.68928 8.18735 8.96827 8.16993 9.26512C8.1525 9.56197 8.24908 9.85427 8.43994 10.0823C8.63079 10.3103 8.90151 10.4569 9.19679 10.492L9.33329 10.5002H16.3333C16.6307 10.4998 16.9167 10.386 17.1329 10.1818C17.3491 9.97771 17.4792 9.69872 17.4967 9.40187C17.5141 9.10502 17.4175 8.81272 17.2267 8.58469C17.0358 8.35666 16.7651 8.21012 16.4698 8.175L16.3333 8.16683Z" fill="#004D71"/>
</svg>
