<svg width="40" height="40" viewBox="0 0 40 40" fill="none" xmlns="http://www.w3.org/2000/svg">
<path d="M28.2861 2.10547C29.3905 2.1057 30.2861 3.00104 30.2861 4.10547V34.6162C30.2861 35.7206 29.3905 36.616 28.2861 36.6162H7C5.89543 36.6162 5 35.7208 5 34.6162V4.10547C5 3.0009 5.89543 2.10547 7 2.10547H28.2861ZM9.65918 5.94043C9.1071 5.94067 8.65918 6.38829 8.65918 6.94043V31.7822C8.65921 32.3343 9.10711 32.782 9.65918 32.7822H25.3594C25.9116 32.7822 26.3593 32.3345 26.3594 31.7822V6.94043C26.3594 6.38814 25.9117 5.94043 25.3594 5.94043H9.65918Z" fill="#004D71"/>
<rect opacity="0.5" x="11.0713" y="9.54883" width="12.1429" height="2.55639" rx="1.2782" fill="#9E7F54"/>
<rect opacity="0.5" x="11.0713" y="14.6616" width="9.71429" height="2.55639" rx="1.27819" fill="#9E7F54"/>
<rect opacity="0.5" x="11.0713" y="19.7744" width="8.5" height="2.55639" rx="1.2782" fill="#9E7F54"/>
<circle cx="28" cy="30.1055" r="8" fill="#F5D93F"/>
<path d="M28 25.2637C28.6903 25.2637 29.2499 25.8234 29.25 26.5137V29.2109H31.6836C32.4102 29.2109 33 29.7998 33 30.5264C33 31.253 32.4102 31.8418 31.6836 31.8418H29.25V34.54C29.2498 35.2302 28.6902 35.79 28 35.79C27.3098 35.79 26.7502 35.2302 26.75 34.54V31.8418H24.3164C23.5898 31.8418 23 31.253 23 30.5264C23 29.7998 23.5898 29.2109 24.3164 29.2109H26.75V26.5137C26.7501 25.8234 27.3098 25.2637 28 25.2637Z" fill="white"/>
</svg>
