<svg width="25" height="24" viewBox="0 0 25 24" fill="none" xmlns="http://www.w3.org/2000/svg">
<g clip-path="url(#clip0_744_1814)">
<path d="M12.5 2C18.023 2 22.5 6.477 22.5 12C22.5 17.523 18.023 22 12.5 22C6.977 22 2.5 17.523 2.5 12C2.5 6.477 6.977 2 12.5 2ZM12.5 15C12.2348 15 11.9804 15.1054 11.7929 15.2929C11.6054 15.4804 11.5 15.7348 11.5 16C11.5 16.2652 11.6054 16.5196 11.7929 16.7071C11.9804 16.8946 12.2348 17 12.5 17C12.7652 17 13.0196 16.8946 13.2071 16.7071C13.3946 16.5196 13.5 16.2652 13.5 16C13.5 15.7348 13.3946 15.4804 13.2071 15.2929C13.0196 15.1054 12.7652 15 12.5 15ZM12.5 6C12.2551 6.00003 12.0187 6.08996 11.8356 6.25272C11.6526 6.41547 11.5357 6.63975 11.507 6.883L11.5 7V13C11.5003 13.2549 11.5979 13.5 11.7728 13.6854C11.9478 13.8707 12.187 13.9822 12.4414 13.9972C12.6958 14.0121 12.9464 13.9293 13.1418 13.7657C13.3373 13.6021 13.4629 13.3701 13.493 13.117L13.5 13V7C13.5 6.73478 13.3946 6.48043 13.2071 6.29289C13.0196 6.10536 12.7652 6 12.5 6Z" fill="white"/>
</g>
<defs>
<clipPath id="clip0_744_1814">
<rect width="24" height="24" fill="white" transform="translate(0.5)"/>
</clipPath>
</defs>
</svg>
